<!DOCTYPE svg PUBLIC "-//W3C//DTD SVG 1.1//EN" "http://www.w3.org/Graphics/SVG/1.1/DTD/svg11.dtd">
<!-- Uploaded to: SVG Repo, www.svgrepo.com, Transformed by: SVG Repo Mixer Tools -->
<svg version="1.1" id="_x32_" xmlns="http://www.w3.org/2000/svg" xmlns:xlink="http://www.w3.org/1999/xlink" viewBox="0 0 512 512" xml:space="preserve" width="800px" height="800px" fill="#1B22A7">
<g id="SVGRepo_bgCarrier" stroke-width="0"/>
<g id="SVGRepo_tracerCarrier" stroke-linecap="round" stroke-linejoin="round"/>
<g id="SVGRepo_iconCarrier"> <style type="text/css"> .st0{fill:#1B22A7;} </style> <g> <rect x="124.843" class="st0" width="262.315" height="25.284"/> <path class="st0" d="M412.387,80.062c-4.216-7.372-31.608-43.19-31.608-43.19H131.221c0,0-27.392,35.818-31.608,43.19 c-4.216,7.378-3.163,10.534-3.163,21.074c0,10.534,0,336.066,0,349.762c0,13.696,3.906,31.148,13.703,35.818 c19.892,9.48,12.521,25.284,33.703,25.284h224.287c21.182,0,13.811-15.804,33.703-25.284c9.797-4.669,13.703-22.122,13.703-35.818 c0-13.696,0-339.228,0-349.762C415.55,90.596,416.603,87.44,412.387,80.062z"/> </g> </g>
</svg>