<?xml version="1.0" encoding="UTF-8"?>
<svg id="Camada_1" xmlns="http://www.w3.org/2000/svg" version="1.1" viewBox="0 0 800 800">
  <!-- Generator: Adobe Illustrator 30.7.0, SVG Export Plug-In . SVG Version: 2.1.4 Build 114)  -->
  <defs>
    <style>
      .st0 {
        fill: #1b22a7;
      }
    </style>
  </defs>
  <path class="st0" d="M667.37,87.74c12.2-3.27,23.53,1.28,23.53,7.59v559.73c-5.29,31.14-28.14,53.93-59.32,58.3H168.45c-31.76-4.44-55.69-28.66-59.35-60.46l.08-557.57c0-6.36,11.32-10.8,23.5-7.61l.02,499.57c4.01,18.97,17.94,32.24,37,35.68h460.64c19.06-3.44,32.99-16.7,37-35.68l.02-499.55Z"/>
  <path class="st0" d="M289.09,533.58l-66.27,12.65-12.94-63.45c-.46-2.26.16-4.67,1.37-5.92s3.23-1.37,5.48-1.81l59.71-11.67c1.32.28,3.12,3.3,3.39,4.69l11.7,59.14c.39,1.97.06,5.9-2.43,6.37Z"/>
  <path class="st0" d="M567.95,525.7l-60.43,12.19c-3.14.63-5.83-1.5-6.37-4.27l-12.57-64.36,64.18-13.44c3.59-.75,6.59.99,6.82,4.92l11.69,57.89c.53,2.6.66,6.27-3.32,7.07Z"/>
  <path class="st0" d="M416.37,456.75l-57.35-11.67c-1.74-.2-8.02-1.77-7.53-4.32l11.81-61.49c.37-1.92.91-3.29,1.86-4.13,1.59-1.42,3.24-1.15,5.54-.69l57.88,11.58c2.28.46,3.68,1.19,4.6,2.71,1.01,1.67.67,3.23.22,5.47l-11.86,58.86c-.42,2.1-2.3,3.81-5.17,3.68Z"/>
  <g>
    <polygon class="st0" points="646.32 300.56 153.8 300.57 153.69 87 646.35 87.01 646.32 300.56"/>
    <path class="st0" d="M626.67,601.96l-446.5.03c-13.03.72-23-6.39-26.5-18.77l.06-261.65h492.59s.1,260.53.1,260.53c-2.03,10.42-8.63,16.73-19.75,19.86ZM441.79,459.7l13.19-64.74c2.68-13.14-5.93-26.63-19.14-29.24l-64.44-12.72c-12.95-2.56-22.78,5.68-28.08,17.22l-12.76,65.15c-2.78,14.21,6.23,27.07,20.33,29.81l63.48,12.32c11.81,2.29,24.85-5.2,27.42-17.8ZM505.69,560.24l66.04-13.17c13.67-2.73,23.56-14.72,20.75-29.07l-12.62-64.56c-2.41-12.34-15.3-21.49-27.82-19l-65.58,13.01c-12.74,2.53-20.86,16.08-18.31,28.88l13.05,65.5c2.24,11.26,13.01,16.49,24.48,18.41ZM225.51,568l65.1-12.55c12.88-2.48,25.44-14.06,22.65-28.13l-13.22-66.56c-2.39-12.02-14.96-20.8-27.15-18.4l-65.49,12.91c-15.07,2.97-21.51,18.57-18.61,32.71l12.3,60.03c2.35,11.48,12.15,17.96,24.42,19.98Z"/>
  </g>
</svg>